<svg width="16" height="17" viewBox="0 0 16 17" fill="none" xmlns="http://www.w3.org/2000/svg">
<path fill-rule="evenodd" clip-rule="evenodd" d="M6.45375 11.0319C3.51223 11.0319 1 11.4765 1 13.2579C1 15.0393 3.49693 15.5 6.45375 15.5C9.39604 15.5 11.9075 15.0546 11.9075 13.274C11.9075 11.4933 9.41134 11.0319 6.45375 11.0319Z" stroke="#474A59" stroke-width="1.5" stroke-linecap="round" stroke-linejoin="round"/>
<path opacity="0.4" fill-rule="evenodd" clip-rule="evenodd" d="M6.45356 8.49108C8.38422 8.49108 9.94911 6.9262 9.94911 4.99554C9.94911 3.06488 8.38422 1.5 6.45356 1.5C4.52367 1.5 2.95876 3.06488 2.95876 4.99554C2.9519 6.91932 4.5053 8.4842 6.42984 8.49108H6.45356Z" stroke="#474A59" stroke-width="1.5" stroke-linecap="round" stroke-linejoin="round"/>
<path d="M13.5911 6.02951V9.09806" stroke="#474A59" stroke-width="1.5" stroke-linecap="round" stroke-linejoin="round"/>
<path d="M15.1569 7.56369H12.0271" stroke="#474A59" stroke-width="1.5" stroke-linecap="round" stroke-linejoin="round"/>
</svg>
