<svg width="195" height="139" viewBox="0 0 195 139" fill="none" xmlns="http://www.w3.org/2000/svg">
<path d="M185.61 42.103C182.926 44.1898 179.957 46.4915 176.864 48.8972C168.714 55.2199 159.469 62.3885 152.425 68.0179C140.829 77.1762 128.256 87.4784 117.179 96.6228C111.525 65.7301 105.007 34.9553 99.3059 8.40258L97.5 0L95.6941 8.40258C89.9925 34.9553 83.4676 65.7301 77.8215 96.6228C66.7437 87.4784 54.1644 77.1762 42.5745 68.0179C35.5307 62.3954 26.2865 55.2269 18.1355 48.8972C15.0426 46.4984 12.0742 44.1968 9.3895 42.103L0 34.7958L16.4334 58.9013C35.5929 87.0693 53.3479 112.18 70.7084 135.661L70.8676 135.876L70.8191 136.064L70.9437 135.973L72.7842 138.476L75.4482 136.327C79.8765 132.708 84.5125 128.77 88.9962 124.957C91.8123 122.558 94.7184 120.09 97.5 117.761C100.288 120.09 103.188 122.558 106.004 124.957C110.488 128.77 115.123 132.708 119.552 136.327L122.216 138.476L124.056 135.973L124.181 136.064L124.132 135.876L124.292 135.661C141.652 112.18 159.407 87.0693 178.567 58.9013L195 34.7958L185.617 42.103H185.61ZM72.6666 126.475C62.3015 110.322 51.3759 93.8011 39.4816 76.3027C51.3067 84.9409 64.2804 94.1269 76.6798 102.89C75.2475 110.891 73.9052 118.801 72.6597 126.475H72.6666ZM84.9553 121.747C82.492 123.425 79.9388 125.165 77.4963 126.864L77.1365 127.113C78.9078 120.569 80.6861 113.816 82.4367 106.953C86.4568 109.795 90.4285 112.596 94.2964 115.328C91.1965 117.497 88.0344 119.654 84.9622 121.747H84.9553ZM89.8265 106.544C87.8337 104.894 85.8202 103.23 83.7998 101.559C88.2074 84.0536 92.608 65.3904 97.5069 43.4688C102.406 65.3904 106.806 84.0605 111.214 101.559C109.194 103.23 107.18 104.894 105.187 106.544C102.593 108.686 100.032 110.807 97.5138 112.894C94.9952 110.807 92.4281 108.693 89.8403 106.544H89.8265ZM117.511 126.864C115.061 125.165 112.515 123.432 110.052 121.747C106.973 119.647 103.81 117.497 100.717 115.328C104.585 112.589 108.55 109.788 112.577 106.953C114.328 113.823 116.106 120.576 117.877 127.113L117.518 126.864H117.511ZM122.333 126.482C121.095 118.808 119.746 110.897 118.313 102.897C130.713 94.1408 143.686 84.9479 155.511 76.3096C143.617 93.808 132.692 110.329 122.326 126.482H122.333Z" fill="#474A59"/>
</svg>
