<svg width="19" height="16" viewBox="0 0 19 16" fill="none" xmlns="http://www.w3.org/2000/svg">
<path fill-rule="evenodd" clip-rule="evenodd" d="M17.8479 5.82046L17.6372 5.45481C17.4589 5.14542 17.0639 5.03869 16.7541 5.21621C16.6066 5.30309 16.4306 5.32774 16.2649 5.28472C16.0993 5.2417 15.9575 5.13456 15.8709 4.98691C15.8152 4.89306 15.7853 4.78617 15.7842 4.67704C15.7892 4.50208 15.7232 4.33254 15.6012 4.20703C15.4792 4.08152 15.3116 4.01075 15.1365 4.01082H14.712C14.5405 4.01082 14.3761 4.07915 14.2552 4.20069C14.1342 4.32223 14.0667 4.48697 14.0675 4.65845C14.0624 5.01249 13.7739 5.29681 13.4199 5.29678C13.3107 5.29564 13.2038 5.26571 13.11 5.21001C12.8002 5.03249 12.4051 5.13922 12.2269 5.44861L12.0007 5.82046C11.8226 6.12946 11.9279 6.52426 12.2362 6.70359C12.4365 6.81927 12.56 7.03307 12.56 7.26445C12.56 7.49583 12.4365 7.70963 12.2362 7.82532C11.9283 8.00343 11.8229 8.39727 12.0007 8.70535L12.2145 9.07409C12.298 9.2248 12.4381 9.33601 12.6039 9.38312C12.7696 9.43022 12.9473 9.40934 13.0976 9.32509C13.2453 9.23887 13.4214 9.21525 13.5867 9.25947C13.7519 9.30369 13.8927 9.4121 13.9776 9.56059C14.0333 9.65444 14.0633 9.76133 14.0644 9.87046C14.0644 10.2281 14.3543 10.5181 14.712 10.5181H15.1365C15.493 10.5181 15.7825 10.23 15.7842 9.87355C15.7833 9.70154 15.8513 9.53633 15.9729 9.4147C16.0946 9.29306 16.2598 9.2251 16.4318 9.22593C16.5407 9.22884 16.6471 9.25865 16.7417 9.31269C17.0507 9.49074 17.4455 9.38546 17.6248 9.07719L17.8479 8.70535C17.9343 8.55712 17.958 8.38058 17.9138 8.21482C17.8696 8.04906 17.7611 7.90776 17.6124 7.82222C17.4637 7.73667 17.3552 7.59537 17.311 7.42962C17.2668 7.26386 17.2905 7.08732 17.3769 6.93909C17.4331 6.84104 17.5143 6.75975 17.6124 6.70359C17.9188 6.52436 18.0238 6.13187 17.8479 5.82356V5.82046Z" stroke="black" stroke-width="0.5" stroke-linecap="round" stroke-linejoin="round"/>
<path opacity="0.4" d="M14.9261 8.157C15.419 8.157 15.8185 7.75744 15.8185 7.26457C15.8185 6.7717 15.419 6.37215 14.9261 6.37215C14.4332 6.37215 14.0337 6.7717 14.0337 7.26457C14.0337 7.75744 14.4332 8.157 14.9261 8.157Z" stroke="black" stroke-width="0.5" stroke-linecap="round" stroke-linejoin="round"/>
<path fill-rule="evenodd" clip-rule="evenodd" d="M6.39709 10.4324C3.486 10.4324 1 10.8725 1 12.6352C1 14.3979 3.47023 14.8538 6.39709 14.8538C9.30818 14.8538 11.7935 14.413 11.7935 12.651C11.7935 10.889 9.32395 10.4324 6.39709 10.4324Z" stroke="black" stroke-linecap="round" stroke-linejoin="round"/>
<path opacity="0.4" fill-rule="evenodd" clip-rule="evenodd" d="M6.39738 7.91818C8.30776 7.91818 9.85613 6.36909 9.85613 4.45871C9.85613 2.54833 8.30776 0.999954 6.39738 0.999954C4.487 0.999954 2.93789 2.54833 2.93789 4.45871C2.93145 6.36264 4.46979 7.91173 6.373 7.91818H6.39738Z" stroke="black" stroke-linecap="round" stroke-linejoin="round"/>
</svg>
