<svg width="14" height="15" viewBox="0 0 14 15" fill="none" xmlns="http://www.w3.org/2000/svg">
<path opacity="0.4" d="M12.0984 5.69562C12.0984 5.69562 11.7115 10.495 11.487 12.5167C11.3801 13.4822 10.7837 14.0481 9.80667 14.0659C7.94749 14.0994 6.08616 14.1015 4.22769 14.0623C3.28777 14.0431 2.70129 13.4701 2.59654 12.5217C2.37065 10.4822 1.98584 5.69562 1.98584 5.69562" stroke="#ED9393" stroke-width="1.5" stroke-linecap="round" stroke-linejoin="round"/>
<path d="M13.0843 3.39496H1" stroke="#ED9393" stroke-width="1.5" stroke-linecap="round" stroke-linejoin="round"/>
<path d="M10.7556 3.39497C10.1962 3.39497 9.71448 2.99947 9.60474 2.45148L9.43158 1.58495C9.32469 1.18518 8.96269 0.908691 8.55009 0.908691H5.53364C5.12104 0.908691 4.75903 1.18518 4.65214 1.58495L4.47898 2.45148C4.36924 2.99947 3.88752 3.39497 3.32812 3.39497" stroke="#ED9393" stroke-width="1.5" stroke-linecap="round" stroke-linejoin="round"/>
</svg>
