<svg width="31" height="31" viewBox="0 0 31 31" fill="none" xmlns="http://www.w3.org/2000/svg">
<g id="folder (3) 1">
<g id="Group">
<g id="Group_2">
<path id="Vector" d="M23.4141 0.936539H22.0148C22.0148 0.419408 21.5956 0 21.0782 0H4.78908C4.27189 0 3.85254 0.419287 3.85254 0.936539V25.8272C3.85254 26.3445 4.27189 26.7638 4.78908 26.7638C22.5453 26.7638 21.1614 26.8184 21.4672 26.6784C21.7042 26.5699 21.8879 26.3657 21.969 26.1152H23.414C23.4141 25.9354 23.4141 1.28753 23.4141 0.936539Z" fill="#60B7FF"/>
</g>
<path id="Vector_2" d="M23.0255 0H21.0786C21.5959 0 22.0152 0.419287 22.0152 0.936539V25.8272C22.0152 26.3445 21.5959 26.7638 21.0786 26.7638H23.0255C23.5427 26.7638 23.962 26.3445 23.962 25.8272V0.936539C23.962 0.419287 23.5427 0 23.0255 0Z" fill="#26A6FE"/>
<path id="Vector_3" d="M23.962 6.41562L19.6362 2.08984H6.61291C5.89797 2.08984 5.31836 2.66946 5.31836 3.3844V26.5311C5.31836 26.6107 5.32659 26.6882 5.34034 26.7637H23.0254C23.5427 26.7637 23.962 26.3444 23.962 25.8272V6.41562Z" fill="#26A6FE"/>
<path id="Vector_4" d="M25.4963 6.65671L23.3013 5.28617L21.4062 2.08984H8.38293C7.66799 2.08984 7.08838 2.66946 7.08838 3.3844V26.5311C7.08838 27.246 7.66799 27.8257 8.38293 27.8257H25.4711C25.4796 27.8257 25.4878 27.8246 25.4963 27.8244V6.65671Z" fill="#EAF6FF"/>
<path id="Vector_5" d="M26.7653 7.44997L24.8185 6.23438V26.5318C24.8185 27.2467 24.2389 27.8264 23.5239 27.8264H25.4708C26.1857 27.8264 26.7654 27.2467 26.7654 26.5318V7.44997H26.7653Z" fill="#D8ECFE"/>
<path id="Vector_6" d="M22.7003 7.44933H26.7653L21.4058 2.08984V6.15478C21.4058 6.86972 21.9854 7.44933 22.7003 7.44933Z" fill="#B3DAFE"/>
<g id="Group_3">
<g id="Group_4">
<path id="Vector_7" d="M23.6588 10.3838H10.1953C9.93666 10.3838 9.72705 10.1741 9.72705 9.91554C9.72705 9.65694 9.93666 9.44727 10.1953 9.44727H23.6588C23.9174 9.44727 24.127 9.65694 24.127 9.91554C24.127 10.1741 23.9174 10.3838 23.6588 10.3838Z" fill="#82AEE3"/>
</g>
<g id="Group_5">
<path id="Vector_8" d="M23.6588 13.4815H10.1953C9.93666 13.4815 9.72705 13.2718 9.72705 13.0132C9.72705 12.7546 9.93666 12.5449 10.1953 12.5449H23.6588C23.9174 12.5449 24.127 12.7546 24.127 13.0132C24.127 13.2718 23.9174 13.4815 23.6588 13.4815Z" fill="#82AEE3"/>
</g>
</g>
<path id="Vector_9" d="M28.7614 15.5006H27.7465C27.5292 15.1249 27.123 14.8729 26.6651 14.8729C26.0227 14.8729 11.8481 14.8729 10.9444 14.8729L9.30058 12.1531H8.3041C8.12906 11.9191 7.85254 11.7773 7.55453 11.7773H2.07619C1.55894 11.7773 1.13965 12.1967 1.13965 12.7139V29.7518C1.13965 30.4415 1.69874 31.0005 2.38837 31.0005H26.6651C26.8713 31.0005 27.081 30.9471 27.2664 30.8446H27.2688C27.4262 30.7575 27.5623 30.637 27.6687 30.4932H28.7613L28.7614 15.5006Z" fill="#FDB441"/>
<g id="Group_6">
<path id="Vector_10" d="M8.38448 12.2797L9.7414 14.8729H11.6883L10.3314 12.2797C10.1698 11.9709 9.85008 11.7773 9.50157 11.7773H7.55469C7.9032 11.7773 8.22288 11.9709 8.38448 12.2797Z" fill="#FEA613"/>
<path id="Vector_11" d="M28.6119 14.873H26.665C27.3547 14.873 27.9138 15.4321 27.9138 16.1218V29.7519C27.9138 30.4416 27.3547 31.0006 26.665 31.0006H28.6119C29.3016 31.0006 29.8606 30.4415 29.8606 29.7519V16.1218C29.8606 15.4321 29.3015 14.873 28.6119 14.873Z" fill="#FEA613"/>
</g>
</g>
</g>
</svg>
