<svg width="176" height="176" viewBox="0 0 176 176" fill="none" xmlns="http://www.w3.org/2000/svg">
<g clip-path="url(#clip0_274_53902)">
<path d="M88.0284 176.057C136.645 176.057 176.057 136.645 176.057 88.0284C176.057 39.4117 136.645 0 88.0284 0C39.4117 0 0 39.4117 0 88.0284C0 136.645 39.4117 176.057 88.0284 176.057Z" fill="#EAEBEB"/>
<path d="M125.479 58.7041L139.118 47.1678C139.629 46.77 141.391 43.9854 141.391 43.9854C140.167 44.4662 138.972 45.0165 137.811 45.6334L124.172 57.1697C123.66 57.5675 120.478 57.5107 120.023 57.9085L103.884 71.4907C103.429 71.8317 102.974 74.9573 102.463 75.4119L88.4261 87.2324C88.1958 87.3933 88.0373 87.6376 87.9843 87.9135C87.9312 88.1894 87.9878 88.4751 88.1419 88.7099H88.1988C88.4083 88.9016 88.682 89.0079 88.966 89.0079C89.2499 89.0079 89.5236 88.9016 89.7332 88.7099L103.77 76.8895C104.281 76.4916 107.464 76.5485 107.918 76.1507L124.001 62.5685C124.456 62.2275 124.967 59.1019 125.479 58.7041Z" fill="#9D9D9C"/>
<path d="M88.5404 88.4253C88.4652 88.2856 88.4411 88.124 88.4722 87.9684C88.5033 87.8128 88.5878 87.6729 88.7109 87.5729L102.805 75.7524C103.146 75.4683 103.373 74.6727 103.657 73.4792C103.773 72.9073 103.964 72.3532 104.225 71.8312L120.365 58.249C120.905 58.1171 121.457 58.0409 122.013 58.0217C123.32 57.908 124.115 57.7944 124.456 57.5102L138.152 46.0307C138.781 45.6261 139.447 45.2836 140.141 45.0078C139.739 45.6371 139.302 46.2442 138.834 46.8263L125.138 58.3058C124.797 58.6468 124.57 59.3856 124.229 60.6358C124.09 61.1944 123.919 61.7447 123.718 62.2839L107.578 75.8661L105.873 76.0934C104.623 76.207 103.827 76.2639 103.486 76.6048L89.4497 88.4253C89.3222 88.5268 89.1666 88.5866 89.004 88.5968C88.8414 88.6069 88.6796 88.5669 88.5404 88.4821V88.4253Z" fill="#F6F6F6"/>
<path d="M60.5793 65.2965L50.1227 56.7153C49.1994 56.3114 48.2501 55.9697 47.2812 55.6924C47.7404 56.6052 48.2726 57.4794 48.8725 58.3065L59.329 66.8877C59.7268 67.1719 59.7837 69.9565 60.1247 70.2407L72.4566 80.3562C72.7976 80.6404 75.5254 80.1289 75.9232 80.4699L86.6639 89.2784C86.7632 89.3532 86.8768 89.4069 86.9977 89.436C87.1186 89.4652 87.2442 89.4692 87.3667 89.4479C87.4892 89.4266 87.606 89.3804 87.7099 89.3122C87.8139 89.2439 87.9027 89.1551 87.971 89.0511H88.0278C88.1879 88.8567 88.2706 88.61 88.2602 88.3583C88.2497 88.1066 88.1467 87.8677 87.971 87.6872L77.1734 78.9355C76.8324 78.5945 76.7756 75.8099 76.3778 75.5258L64.0459 65.4102C63.7049 65.126 60.9771 65.6375 60.5793 65.2965Z" fill="#9D9D9C"/>
<path d="M87.6875 88.8241C87.6437 88.8778 87.5895 88.9221 87.5281 88.9542C87.4667 88.9863 87.3994 89.0056 87.3303 89.0109C87.2612 89.0162 87.1918 89.0074 87.1262 88.9851C87.0606 88.9627 87.0002 88.9273 86.9487 88.8809L76.208 80.1292C75.9239 79.9019 75.2987 79.9019 74.219 79.9587C73.7282 80.0171 73.2322 80.0171 72.7414 79.9587L60.4095 69.8431C60.3527 69.7295 60.239 68.9907 60.1253 68.4792C60.0117 67.9678 59.898 66.7175 59.6139 66.4902L49.1573 57.909C48.7831 57.4849 48.4765 57.0057 48.248 56.4883C48.7971 56.6456 49.3299 56.8549 49.8393 57.1134L60.2958 65.6946C60.58 65.9219 61.2619 65.8651 62.3417 65.8083H63.7624L76.0943 75.9239C76.2568 76.3814 76.3524 76.8598 76.3785 77.3446C76.4921 78.3675 76.6058 79.0495 76.89 79.2768L87.6307 88.0853C87.6886 88.1248 87.7377 88.1758 87.7751 88.2351C87.8125 88.2944 87.8373 88.3607 87.8479 88.43C87.8586 88.4993 87.8549 88.57 87.8371 88.6378C87.8192 88.7056 87.7877 88.769 87.7443 88.8241H87.6875Z" fill="#F6F6F6"/>
<path d="M58.0215 152.245L66.8868 132.298L75.8658 112.351C78.8778 105.702 81.7193 99.0532 84.9585 92.461C86.5497 89.2217 88.141 85.9256 89.8458 82.6864C91.5507 79.4471 93.1988 76.2647 94.9605 73.0254L95.1309 73.139C93.8239 76.5488 92.46 79.9017 91.0392 83.2546C89.6185 86.6076 88.141 89.9605 86.6634 93.3134C83.7083 99.9624 80.4122 106.441 77.2866 113.033L67.7961 132.696L58.192 152.302L58.0215 152.245Z" fill="#9D9D9C"/>
<path d="M76.3208 112.579L78.9918 106.612C81.0376 102.009 83.1403 97.2917 85.3566 92.6886C86.891 89.5629 88.5391 86.21 90.244 82.9139C90.9259 81.55 94.1083 74.901 94.8471 73.5371C94.2788 74.9578 91.2101 81.6637 90.5849 83.0844C89.1642 86.4942 87.6866 89.9039 86.2659 93.0864C84.1632 97.7463 81.8901 102.406 79.6737 106.953C78.7645 108.885 77.7984 110.874 76.8323 112.806L67.3418 132.469L76.3208 112.579Z" fill="#F6F6F6"/>
<path d="M88.0269 93.7676C91.1968 93.7676 93.7666 91.1978 93.7666 88.0278C93.7666 84.8579 91.1968 82.2881 88.0269 82.2881C84.8569 82.2881 82.2871 84.8579 82.2871 88.0278C82.2871 91.1978 84.8569 93.7676 88.0269 93.7676Z" fill="#F6F6F6"/>
<path d="M97.4623 14.3781H97.2918H97.4623ZM97.4623 14.3781C97.6239 14.3783 97.7839 14.3456 97.9325 14.2821M97.4623 14.3781L97.9325 14.2821M97.9325 14.2821C98.0812 14.2186 98.2153 14.1256 98.3269 14.0087M97.9325 14.2821L98.3269 14.0087M98.3269 14.0087C98.4385 13.8918 98.5252 13.7534 98.5817 13.602M98.3269 14.0087L98.5817 13.602M98.5817 13.602C98.6383 13.4506 98.6634 13.2893 98.6557 13.1279L98.5817 13.602ZM97.4552 12.0843L97.4552 12.0844H97.4623C97.7391 12.0844 98.0044 12.1944 98.2001 12.3901C98.3958 12.5857 98.5057 12.8511 98.5057 13.1279H98.5056L98.5059 13.135C98.5126 13.2761 98.4906 13.4172 98.4412 13.5496C98.3918 13.682 98.316 13.8029 98.2184 13.9051C98.1209 14.0074 98.0036 14.0887 97.8736 14.1442C97.7437 14.1997 97.6038 14.2283 97.4625 14.2281H97.4623H97.2918H97.179L97.1477 14.3365L93.57 26.7167C93.2929 27.3673 92.6095 27.8732 91.6854 28.2166C90.7621 28.5597 89.6245 28.7302 88.4909 28.7266C87.357 28.7231 86.2378 28.5456 85.3507 28.2014C84.4583 27.8551 83.8315 27.3529 83.6249 26.7203L83.6247 26.7196L79.6467 14.7287L79.6126 14.6259H79.5043H79.2202H79.22C79.0787 14.6261 78.9388 14.5975 78.8089 14.542C78.6789 14.4865 78.5616 14.4052 78.464 14.3029C78.3665 14.2007 78.2907 14.0798 78.2413 13.9474C78.1919 13.815 78.1698 13.674 78.1766 13.5328L78.1767 13.5328V13.5257C78.1767 13.2489 78.2867 12.9835 78.4823 12.7879C78.678 12.5922 78.9434 12.4822 79.2202 12.4822C79.4969 12.4822 79.7623 12.5922 79.958 12.7879C80.1536 12.9835 80.2636 13.2489 80.2636 13.5257H80.2635L80.2636 13.5293C80.2675 13.6912 80.2336 13.8519 80.1646 13.9985C80.0956 14.1451 79.9934 14.2737 79.8661 14.3739L79.7654 14.4532L79.8281 14.565L84.6017 23.0894L84.8815 22.9981L83.4608 11.2912L83.4448 11.1593H83.3119H83.255C82.9783 11.1593 82.7129 11.0494 82.5172 10.8537C82.3215 10.658 82.2116 10.3926 82.2116 10.1159H82.2118L82.2114 10.1088C82.2047 9.96762 82.2267 9.82658 82.2761 9.69419C82.3256 9.56181 82.4013 9.44084 82.4989 9.33863C82.5965 9.23641 82.7138 9.15508 82.8437 9.09956C82.9726 9.04451 83.1113 9.01598 83.2514 9.01567C83.4873 9.02767 83.7132 9.1153 83.8955 9.26565C84.0787 9.41675 84.2081 9.62306 84.2644 9.85378C84.3207 10.0845 84.3008 10.3272 84.2077 10.5457C84.1146 10.7642 83.9534 10.9467 83.748 11.0659L83.646 11.1252L83.6795 11.2382L86.9756 22.3767L87.2688 22.3479L88.4054 9.95912L88.419 9.81104L88.271 9.79617C88.0268 9.77163 87.8005 9.65695 87.6363 9.47452C87.4721 9.29209 87.3818 9.05502 87.3831 8.80959L87.3833 8.80959L87.3829 8.80169C87.3762 8.66055 87.3982 8.5195 87.4476 8.38712C87.497 8.25474 87.5728 8.13377 87.6704 8.03156C87.7679 7.92934 87.8853 7.84801 88.0152 7.79249C88.1451 7.73698 88.285 7.70843 88.4263 7.70859H88.4265C88.7183 7.70859 88.9981 7.82451 89.2045 8.03085C89.4105 8.23685 89.5264 8.51612 89.5267 8.80741C89.5221 9.03703 89.4418 9.25872 89.2983 9.43809C89.1545 9.61782 88.9553 9.74497 88.7318 9.79973L88.6038 9.83108L88.6184 9.96206L90.0391 22.6918L90.334 22.7104L93.1186 11.174L93.1494 11.0467L93.0273 10.9991C92.8249 10.9201 92.6504 10.783 92.5258 10.605C92.4015 10.4274 92.3324 10.2171 92.3272 10.0005C92.3273 9.85972 92.3558 9.72042 92.4111 9.59096C92.4666 9.46102 92.548 9.34371 92.6502 9.24614C92.7524 9.14857 92.8734 9.07278 93.0057 9.02336C93.1381 8.97395 93.2792 8.95194 93.4203 8.95867L93.4203 8.95884H93.4274C93.7042 8.95884 93.9696 9.06877 94.1653 9.26445C94.3602 9.45939 94.47 9.72353 94.4709 9.99913C94.4591 10.2646 94.3517 10.5168 94.1684 10.7093C93.9844 10.9025 93.7365 11.0222 93.4708 11.0463L93.3438 11.0577L93.3347 11.1849L92.4822 23.0053L92.7677 23.0797L96.9162 14.2144L96.973 14.0931L96.8589 14.023C96.7063 13.9291 96.5804 13.7975 96.4934 13.6409C96.4063 13.4843 96.3611 13.3078 96.3621 13.1286L96.3621 13.1277C96.3619 12.9864 96.3905 12.8465 96.446 12.7166C96.5015 12.5866 96.5828 12.4693 96.685 12.3717C96.7873 12.2742 96.9082 12.1984 97.0406 12.149C97.173 12.0996 97.314 12.0775 97.4552 12.0843ZM79.5043 14.7759L83.4823 26.7669L84.685 22.6242L84.8635 22.9428L84.7326 23.0161L84.5837 23.0342L84.5397 22.6717L79.9589 14.4918C80.1045 14.3771 80.2214 14.2301 80.3003 14.0624C80.3792 13.8947 80.418 13.7109 80.4136 13.5257C80.4136 13.2091 80.2878 12.9056 80.064 12.6818C79.8402 12.458 79.5367 12.3322 79.2202 12.3322C78.9036 12.3322 78.6001 12.458 78.3763 12.6818C78.1525 12.9056 78.0267 13.2091 78.0267 13.5257C78.019 13.6871 78.0442 13.8484 78.1007 13.9998C78.1573 14.1512 78.2439 14.2896 78.3555 14.4065C78.4671 14.5234 78.6013 14.6164 78.7499 14.6799C78.8986 14.7434 79.0585 14.7761 79.2202 14.7759H79.5043ZM84.5826 26.5964C84.5826 26.8532 84.7208 27.079 84.9313 27.2661C85.1418 27.4532 85.4373 27.614 85.7881 27.7455C86.4908 28.0091 87.4471 28.1671 88.4833 28.1671C89.5211 28.1671 90.4226 27.9944 91.0703 27.7221C91.3939 27.586 91.6608 27.4223 91.8491 27.2369C92.0375 27.0515 92.1567 26.8342 92.1567 26.5964C92.1567 26.3548 92.0338 26.1525 91.8396 25.9916C91.6478 25.8328 91.3783 25.7065 91.0562 25.6076C90.4109 25.4096 89.5133 25.3098 88.4833 25.3098C87.4547 25.3098 86.502 25.3952 85.8015 25.5849C85.4522 25.6796 85.1545 25.803 84.9409 25.9631C84.725 26.1251 84.5826 26.3355 84.5826 26.5964Z" fill="#EFEFEE" stroke="#A8A8A8" stroke-width="0.3"/>
</g>
<defs>
<clipPath id="clip0_274_53902">
<rect width="176" height="176" fill="white"/>
</clipPath>
</defs>
</svg>
