<svg width="176" height="176" viewBox="0 0 176 176" fill="none" xmlns="http://www.w3.org/2000/svg">
<g clip-path="url(#clip0_274_53885)">
<path d="M88.0284 176.057C136.645 176.057 176.057 136.645 176.057 88.0284C176.057 39.4117 136.645 0 88.0284 0C39.4117 0 0 39.4117 0 88.0284C0 136.645 39.4117 176.057 88.0284 176.057Z" fill="#EAEBEB"/>
<path d="M125.479 58.7041L139.118 47.1678C139.629 46.77 141.391 43.9854 141.391 43.9854C140.167 44.4662 138.972 45.0165 137.811 45.6334L124.172 57.1697C123.66 57.5675 120.478 57.5107 120.023 57.9085L103.884 71.4907C103.429 71.8317 102.974 74.9573 102.463 75.4119L88.4261 87.2324C88.1958 87.3933 88.0373 87.6376 87.9843 87.9135C87.9312 88.1894 87.9878 88.4751 88.1419 88.7099H88.1988C88.4083 88.9016 88.682 89.0079 88.966 89.0079C89.2499 89.0079 89.5236 88.9016 89.7332 88.7099L103.77 76.8895C104.281 76.4916 107.464 76.5485 107.918 76.1507L124.001 62.5685C124.456 62.2275 124.967 59.1019 125.479 58.7041Z" fill="#9D9D9C"/>
<path d="M88.5404 88.4253C88.4652 88.2856 88.4411 88.124 88.4722 87.9684C88.5033 87.8128 88.5878 87.6729 88.7109 87.5729L102.805 75.7524C103.146 75.4683 103.373 74.6727 103.657 73.4792C103.773 72.9073 103.964 72.3532 104.225 71.8312L120.365 58.249C120.905 58.1171 121.457 58.0409 122.013 58.0217C123.32 57.908 124.115 57.7944 124.456 57.5102L138.152 46.0307C138.781 45.6261 139.447 45.2836 140.141 45.0078C139.739 45.6371 139.302 46.2442 138.834 46.8263L125.138 58.3058C124.797 58.6468 124.57 59.3856 124.229 60.6358C124.09 61.1944 123.919 61.7447 123.718 62.2839L107.578 75.8661L105.873 76.0934C104.623 76.207 103.827 76.2639 103.486 76.6048L89.4497 88.4253C89.3222 88.5268 89.1666 88.5866 89.004 88.5968C88.8414 88.6069 88.6796 88.5669 88.5404 88.4821V88.4253Z" fill="#F6F6F6"/>
<path d="M60.5793 65.2965L50.1227 56.7153C49.1994 56.3114 48.2501 55.9697 47.2812 55.6924C47.7404 56.6052 48.2726 57.4794 48.8725 58.3065L59.329 66.8877C59.7268 67.1719 59.7837 69.9565 60.1247 70.2407L72.4566 80.3562C72.7976 80.6404 75.5254 80.1289 75.9232 80.4699L86.6639 89.2784C86.7632 89.3532 86.8768 89.4069 86.9977 89.436C87.1186 89.4652 87.2442 89.4692 87.3667 89.4479C87.4892 89.4266 87.606 89.3804 87.7099 89.3122C87.8139 89.2439 87.9027 89.1551 87.971 89.0511H88.0278C88.1879 88.8567 88.2706 88.61 88.2602 88.3583C88.2497 88.1066 88.1467 87.8677 87.971 87.6872L77.1734 78.9355C76.8324 78.5945 76.7756 75.8099 76.3778 75.5258L64.0459 65.4102C63.7049 65.126 60.9771 65.6375 60.5793 65.2965Z" fill="#9D9D9C"/>
<path d="M87.6875 88.8241C87.6437 88.8778 87.5895 88.9221 87.5281 88.9542C87.4667 88.9863 87.3994 89.0056 87.3303 89.0109C87.2612 89.0162 87.1918 89.0074 87.1262 88.9851C87.0606 88.9627 87.0002 88.9273 86.9487 88.8809L76.208 80.1292C75.9239 79.9019 75.2987 79.9019 74.219 79.9587C73.7282 80.0171 73.2322 80.0171 72.7414 79.9587L60.4095 69.8431C60.3527 69.7295 60.239 68.9907 60.1253 68.4792C60.0117 67.9678 59.898 66.7175 59.6139 66.4902L49.1573 57.909C48.7831 57.4849 48.4765 57.0057 48.248 56.4883C48.7971 56.6456 49.3299 56.8549 49.8393 57.1134L60.2958 65.6946C60.58 65.9219 61.2619 65.8651 62.3417 65.8083H63.7624L76.0943 75.9239C76.2568 76.3814 76.3524 76.8598 76.3785 77.3446C76.4921 78.3675 76.6058 79.0495 76.89 79.2768L87.6307 88.0853C87.6886 88.1248 87.7377 88.1758 87.7751 88.2351C87.8125 88.2944 87.8373 88.3607 87.8479 88.43C87.8586 88.4993 87.8549 88.57 87.8371 88.6378C87.8192 88.7056 87.7877 88.769 87.7443 88.8241H87.6875Z" fill="#F6F6F6"/>
<path d="M58.0215 152.245L66.8868 132.298L75.8658 112.351C78.8778 105.702 81.7193 99.0532 84.9585 92.461C86.5497 89.2217 88.141 85.9256 89.8458 82.6864C91.5507 79.4471 93.1988 76.2647 94.9605 73.0254L95.1309 73.139C93.8239 76.5488 92.46 79.9017 91.0392 83.2546C89.6185 86.6076 88.141 89.9605 86.6634 93.3134C83.7083 99.9624 80.4122 106.441 77.2866 113.033L67.7961 132.696L58.192 152.302L58.0215 152.245Z" fill="#9D9D9C"/>
<path d="M76.3208 112.579L78.9918 106.612C81.0376 102.009 83.1403 97.2917 85.3566 92.6886C86.891 89.5629 88.5391 86.21 90.244 82.9139C90.9259 81.55 94.1083 74.901 94.8471 73.5371C94.2788 74.9578 91.2101 81.6637 90.5849 83.0844C89.1642 86.4942 87.6866 89.9039 86.2659 93.0864C84.1632 97.7463 81.8901 102.406 79.6737 106.953C78.7645 108.885 77.7984 110.874 76.8323 112.806L67.3418 132.469L76.3208 112.579Z" fill="#F6F6F6"/>
<path d="M88.0269 93.7676C91.1968 93.7676 93.7666 91.1978 93.7666 88.0278C93.7666 84.8579 91.1968 82.2881 88.0269 82.2881C84.8569 82.2881 82.2871 84.8579 82.2871 88.0278C82.2871 91.1978 84.8569 93.7676 88.0269 93.7676Z" fill="#F6F6F6"/>
<path fill-rule="evenodd" clip-rule="evenodd" d="M97.4623 11.9344C97.3009 11.9267 97.1396 11.9519 96.9882 12.0084C96.8367 12.065 96.6984 12.1516 96.5815 12.2632C96.4646 12.3748 96.3715 12.509 96.308 12.6576C96.2445 12.8063 96.2119 12.9662 96.2121 13.1279C96.211 13.3328 96.2627 13.5346 96.3622 13.7138C96.4618 13.8929 96.6058 14.0434 96.7804 14.1508L92.6318 23.0161L93.4843 11.1957C93.7862 11.1684 94.068 11.0323 94.277 10.8127C94.4861 10.5932 94.6083 10.3052 94.6209 10.0022C94.6209 9.68574 94.4951 9.38219 94.2713 9.15838C94.0475 8.93457 93.744 8.80884 93.4274 8.80884C93.266 8.80114 93.1047 8.82632 92.9533 8.88283C92.8019 8.93935 92.6635 9.02604 92.5466 9.13763C92.4297 9.24923 92.3367 9.38341 92.2732 9.53203C92.2097 9.68066 92.177 9.84063 92.1772 10.0022C92.1828 10.2491 92.2613 10.4888 92.4029 10.691C92.5445 10.8933 92.7428 11.0491 92.9728 11.1388L90.1882 22.6752L88.7675 9.94542C89.0232 9.88279 89.251 9.73736 89.4154 9.53179C89.5799 9.32623 89.6718 9.07205 89.6767 8.80884C89.6767 8.47725 89.545 8.15925 89.3105 7.92478C89.0761 7.69032 88.7581 7.55859 88.4265 7.55859C88.2649 7.55841 88.1049 7.59106 87.9563 7.65455C87.8076 7.71805 87.6735 7.81108 87.5619 7.92798C87.4503 8.04489 87.3636 8.18325 87.3071 8.33467C87.2505 8.48608 87.2254 8.6474 87.2331 8.80884C87.2317 9.09158 87.3357 9.3647 87.5248 9.57487C87.714 9.78503 87.9747 9.91715 88.256 9.94542L87.1194 22.3342L83.8233 11.1957C84.0567 11.0601 84.2399 10.8528 84.3457 10.6045C84.4515 10.3562 84.4741 10.0804 84.4101 9.81824C84.3462 9.55607 84.1991 9.32162 83.9909 9.14993C83.7827 8.97824 83.5246 8.87852 83.255 8.86567C83.0934 8.86548 82.9334 8.89813 82.7848 8.96163C82.6362 9.02512 82.502 9.11815 82.3904 9.23506C82.2788 9.35196 82.1921 9.49032 82.1356 9.64174C82.0791 9.79315 82.0539 9.95447 82.0616 10.1159C82.0616 10.4324 82.1873 10.736 82.4112 10.9598C82.635 11.1836 82.9385 11.3093 83.255 11.3093H83.3119L84.7326 23.0161L79.9589 14.4918C80.1045 14.3771 80.2214 14.2301 80.3003 14.0624C80.3792 13.8947 80.418 13.7109 80.4136 13.5257C80.4136 13.2091 80.2878 12.9056 80.064 12.6818C79.8402 12.458 79.5367 12.3322 79.2202 12.3322C78.9036 12.3322 78.6001 12.458 78.3763 12.6818C78.1525 12.9056 78.0267 13.2091 78.0267 13.5257C78.019 13.6871 78.0442 13.8484 78.1007 13.9998C78.1573 14.1512 78.2439 14.2896 78.3555 14.4065C78.4671 14.5234 78.6013 14.6164 78.7499 14.6799C78.8986 14.7434 79.0585 14.7761 79.2202 14.7759H79.5043L83.4823 26.7669C84.3916 29.5515 92.5182 29.6083 93.7116 26.7669L97.2918 14.3781H97.4623C97.6239 14.3783 97.7839 14.3456 97.9325 14.2821C98.0812 14.2186 98.2153 14.1256 98.3269 14.0087C98.4385 13.8918 98.5252 13.7534 98.5817 13.602C98.6383 13.4506 98.6634 13.2893 98.6557 13.1279C98.6557 12.8113 98.53 12.5078 98.3062 12.284C98.0824 12.0602 97.7788 11.9344 97.4623 11.9344ZM88.4833 28.0171C86.4375 28.0171 84.7326 27.392 84.7326 26.5964C84.7326 25.8008 86.4375 25.4598 88.4833 25.4598C90.5292 25.4598 92.0067 25.8576 92.0067 26.5964C92.0067 27.3352 90.5292 28.0171 88.4833 28.0171Z" fill="#A63F3A"/>
</g>
<defs>
<clipPath id="clip0_274_53885">
<rect width="176" height="176" fill="white"/>
</clipPath>
</defs>
</svg>
