<svg width="14" height="20" viewBox="0 0 14 20" fill="none" xmlns="http://www.w3.org/2000/svg">
<path d="M12.3463 10.9516H12.263C12.121 10.9516 12.0059 10.8364 12.0059 10.6944C12.0059 10.5523 12.121 10.4372 12.263 10.4372H12.3463C12.4786 10.4372 12.6023 10.3858 12.6953 10.2927C12.7884 10.1996 12.8398 10.0759 12.8398 9.94367C12.8398 9.6718 12.6182 9.45014 12.3463 9.45014H12.263C12.121 9.45014 12.0059 9.33502 12.0059 9.19297C12.0059 9.05091 12.121 8.93579 12.263 8.93579H12.3463C12.9023 8.93579 13.3542 9.38768 13.3542 9.94367C13.3542 10.2131 13.2489 10.4666 13.0591 10.6564C12.868 10.8462 12.6157 10.9516 12.3463 10.9516Z" fill="#3E3E3E"/>
<path d="M10.0721 17.1679H9.09604C8.95398 17.1679 8.83887 17.0528 8.83887 16.9107C8.83887 16.7686 8.95398 16.6535 9.09604 16.6535H9.81491V15.5366C9.81491 14.9194 10.0451 14.339 10.4627 13.903C11.4878 12.8326 12.0523 11.4268 12.0523 9.94249C12.0523 8.45945 11.4878 7.05356 10.4627 5.982C10.0451 5.54602 9.81491 4.96554 9.81491 4.34955V3.23145H9.09604C8.95398 3.23145 8.83887 3.11634 8.83887 2.97428C8.83887 2.83222 8.95398 2.7171 9.09604 2.7171H10.0721C10.2141 2.7171 10.3293 2.83222 10.3293 2.97428V4.35077C10.3293 4.83451 10.5081 5.28762 10.8338 5.62807C11.9519 6.79516 12.5667 8.32718 12.5667 9.94371C12.5667 11.5602 11.9519 13.0935 10.8338 14.2593C10.5081 14.5998 10.3293 15.0529 10.3293 15.5366V16.9107C10.3293 17.0528 10.2141 17.1679 10.0721 17.1679Z" fill="#3E3E3E"/>
<path d="M3.55487 17.1679H2.57883C2.43677 17.1679 2.32165 17.0528 2.32165 16.9107V15.5366C2.32165 15.0529 2.14163 14.5986 1.81588 14.2593C0.697778 13.0923 0.0830078 11.5602 0.0830078 9.94371C0.0830078 8.32718 0.699003 6.79516 1.81588 5.62807C2.14163 5.28762 2.32165 4.8345 2.32165 4.35077V2.9755C2.32165 2.83344 2.43677 2.71832 2.57883 2.71832H3.55364C3.6957 2.71832 3.81082 2.83344 3.81082 2.9755C3.81082 3.11756 3.6957 3.23267 3.55364 3.23267H2.836V4.34955C2.836 4.96676 2.60577 5.54724 2.18817 5.98322C1.16192 7.05355 0.597357 8.45944 0.597357 9.94371C0.597357 11.4268 1.16192 12.8326 2.18817 13.9042C2.60577 14.3402 2.836 14.9207 2.836 15.5379V16.6547H3.55364C3.6957 16.6547 3.81082 16.7699 3.81082 16.9119C3.81082 17.054 3.69692 17.1679 3.55487 17.1679Z" fill="#3E3E3E"/>
<path d="M9.09431 4.41933H3.55893C3.41687 4.41933 3.30176 4.30422 3.30176 4.16216V0.836032C3.30176 0.693974 3.41687 0.578857 3.55893 0.578857H9.09431C9.23637 0.578857 9.35149 0.693974 9.35149 0.836032V4.16216C9.35149 4.30422 9.23637 4.41933 9.09431 4.41933ZM3.81611 3.90498H8.83714V1.09321H3.81611V3.90498Z" fill="#3E3E3E"/>
<path d="M9.09431 19.3159H3.55893C3.41687 19.3159 3.30176 19.2008 3.30176 19.0587V15.7326C3.30176 15.5905 3.41687 15.4754 3.55893 15.4754H9.09431C9.23637 15.4754 9.35149 15.5905 9.35149 15.7326V19.0587C9.35149 19.2008 9.23637 19.3159 9.09431 19.3159ZM3.81611 18.8015H8.83714V15.9898H3.81611V18.8015Z" fill="#3E3E3E"/>
</svg>
