<svg width="17" height="17" viewBox="0 0 17 17" fill="none" xmlns="http://www.w3.org/2000/svg">
<g clip-path="url(#clip0_285_6621)">
<path d="M8.5 17C13.1944 17 17 13.1944 17 8.5C17 3.80558 13.1944 0 8.5 0C3.80558 0 0 3.80558 0 8.5C0.0053125 13.1922 3.80777 16.9947 8.5 17ZM8.5 0.566678C12.8815 0.566678 16.4333 4.11855 16.4333 8.5C16.4333 12.8815 12.8815 16.4333 8.5 16.4333C4.11855 16.4333 0.566678 12.8815 0.566678 8.5C0.571658 4.12061 4.12061 0.571658 8.5 0.566678Z" fill="#3E3E3E"/>
<path d="M8.50047 15.8667C12.569 15.8667 15.8671 12.5685 15.8671 8.49998C15.8671 4.43147 12.569 1.1333 8.50047 1.1333C4.43196 1.1333 1.13379 4.43147 1.13379 8.49998C1.13834 12.5666 4.43385 15.8621 8.50047 15.8667ZM3.49878 3.89892L4.09378 4.49392C4.20495 4.6013 4.38169 4.59977 4.49096 4.49047C4.60023 4.38116 4.60179 4.20446 4.49441 4.09329L3.89941 3.49829C4.19721 3.22487 4.51865 2.97837 4.85991 2.76162L5.02453 3.04693C5.07477 3.13532 5.16853 3.19 5.2702 3.19023C5.37187 3.19047 5.46587 3.13618 5.5165 3.04803C5.56714 2.95987 5.56667 2.85133 5.51524 2.76361L5.35005 2.47716C5.70812 2.2888 6.08242 2.13301 6.46837 2.01166L6.55337 2.33353C6.58647 2.45751 6.69877 2.54374 6.82706 2.54377C6.85187 2.5438 6.87654 2.54045 6.90044 2.53384C7.05148 2.49333 7.14113 2.33811 7.10076 2.18704L7.01576 1.86629C7.41064 1.77747 7.8127 1.72422 8.21708 1.70705V2.54998C8.21708 2.70647 8.34395 2.8333 8.5004 2.8333C8.65689 2.8333 8.78372 2.70647 8.78372 2.54998V1.70705C9.18797 1.72385 9.58993 1.77674 9.98478 1.86516L9.89978 2.18591C9.8594 2.33698 9.94905 2.49221 10.1001 2.53271C10.124 2.53932 10.1487 2.54264 10.1735 2.54264C10.3018 2.54261 10.4141 2.45638 10.4472 2.3324L10.5322 2.01053C10.9182 2.13198 11.2925 2.28797 11.6505 2.4766L11.4853 2.76304C11.4339 2.85077 11.4334 2.95931 11.484 3.04746C11.5347 3.13562 11.6287 3.1899 11.7303 3.18967C11.832 3.18944 11.9258 3.13475 11.976 3.04637L12.1406 2.76105C12.4819 2.9777 12.8032 3.2242 13.1008 3.49773L12.5073 4.09273C12.4336 4.16388 12.4041 4.2692 12.43 4.36828C12.4559 4.46736 12.5333 4.54469 12.6323 4.57062C12.7314 4.59655 12.8367 4.567 12.9079 4.49336L13.5029 3.89836C13.7762 4.19622 14.0227 4.51763 14.2396 4.85886L13.9542 5.02348C13.8186 5.10171 13.7722 5.27506 13.8504 5.41066C13.9286 5.54626 14.102 5.59275 14.2376 5.51449L14.524 5.34904C14.7121 5.70723 14.8676 6.08163 14.9887 6.46765L14.6669 6.55265C14.5295 6.5894 14.4407 6.72225 14.4592 6.86323C14.4777 7.00418 14.5978 7.10963 14.7399 7.1097C14.7647 7.10973 14.7894 7.10638 14.8133 7.09977L15.1341 7.01477C15.2228 7.40985 15.2761 7.81208 15.2933 8.21666H14.4505C14.294 8.21666 14.1671 8.34353 14.1671 8.49998C14.1671 8.65647 14.294 8.7833 14.4505 8.7833H15.2934C15.2766 9.18765 15.2237 9.5897 15.1353 9.98462L14.8145 9.89962C14.6656 9.86473 14.5158 9.95441 14.4762 10.1022C14.4366 10.25 14.5216 10.4025 14.668 10.4467L14.9899 10.5317C14.8683 10.9176 14.7123 11.2918 14.5238 11.6498L14.2374 11.4843C14.1497 11.4337 14.0416 11.4337 13.9539 11.4844C13.8663 11.5351 13.8123 11.6286 13.8123 11.7299C13.8123 11.8312 13.8664 11.9247 13.954 11.9754L14.2394 12.14C14.0227 12.4812 13.7762 12.8026 13.5027 13.1002L12.9077 12.5066C12.7965 12.3992 12.6198 12.4007 12.5105 12.5101C12.4012 12.6194 12.3997 12.7961 12.5071 12.9072L13.1021 13.5022C12.8043 13.7757 12.4828 14.0222 12.1416 14.2389L11.9769 13.9536C11.9267 13.8652 11.8329 13.8105 11.7313 13.8103C11.6296 13.8101 11.5356 13.8643 11.485 13.9525C11.4343 14.0407 11.4348 14.1492 11.4862 14.2369L11.6514 14.5234C11.2931 14.7116 10.9187 14.8672 10.5325 14.9883L10.4475 14.6664C10.4065 14.516 10.2516 14.4269 10.1009 14.4672C9.95025 14.5076 9.8605 14.662 9.90011 14.8129L9.98511 15.1337C9.59023 15.2225 9.18817 15.2758 8.78379 15.2929V14.45C8.78379 14.2935 8.65692 14.1667 8.50047 14.1667C8.34398 14.1667 8.21714 14.2935 8.21714 14.45V15.2929C7.8129 15.2761 7.41094 15.2232 7.01609 15.1348L7.10109 14.8141C7.1407 14.6632 7.05095 14.5087 6.90028 14.4684C6.7496 14.4281 6.59471 14.5171 6.55367 14.6676L6.46867 14.9894C6.08268 14.8679 5.70838 14.7119 5.35035 14.5234L5.51554 14.2369C5.5925 14.1015 5.54579 13.9294 5.41092 13.8515C5.27604 13.7736 5.10359 13.8192 5.02483 13.9536L4.86021 14.2389C4.51891 14.0222 4.19751 13.7756 3.89971 13.5022L4.49471 12.9072C4.60209 12.796 4.60056 12.6193 4.49126 12.51C4.38195 12.4007 4.20524 12.3992 4.09408 12.5066L3.49908 13.1016C3.22572 12.8038 2.97922 12.4825 2.7624 12.1414L3.04772 11.9765C3.18332 11.8983 3.2298 11.7249 3.15154 11.5893C3.07328 11.4537 2.89996 11.4072 2.76436 11.4855L2.47818 11.6509C2.28966 11.2928 2.13367 10.9184 2.01211 10.5323L2.33398 10.4473C2.48047 10.4031 2.56541 10.2506 2.52583 10.1028C2.48625 9.95494 2.33647 9.86526 2.18749 9.90019L1.86675 9.98519C1.77796 9.5901 1.72467 9.18788 1.70751 8.7833H2.55047C2.70695 8.7833 2.83379 8.65643 2.83379 8.49998C2.83379 8.34349 2.70695 8.21666 2.55047 8.21666H1.70754C1.72434 7.81231 1.77727 7.41025 1.86565 7.01533L2.18639 7.10033C2.2103 7.10694 2.23497 7.11026 2.25977 7.11026C2.40195 7.1102 2.52204 7.00474 2.54054 6.8638C2.55903 6.72285 2.47021 6.59 2.33285 6.55321L2.01098 6.46821C2.13257 6.08233 2.28856 5.70816 2.47705 5.35016L2.7635 5.51562C2.8991 5.59384 3.07242 5.54736 3.15068 5.41179C3.22891 5.27619 3.18242 5.10287 3.04685 5.02461L2.76154 4.85999C2.97849 4.51856 3.22522 4.19695 3.49878 3.89892Z" fill="#3E3E3E"/>
<path d="M5.95 9.06665C5.01112 9.06665 4.25 9.82777 4.25 10.7667C4.25 11.7055 5.01112 12.4667 5.95 12.4667C6.88888 12.4667 7.65 11.7055 7.65 10.7667C7.64907 9.82813 6.88849 9.06758 5.95 9.06665ZM5.95 11.9C5.32409 11.9 4.81668 11.3926 4.81668 10.7667C4.81668 10.1407 5.32409 9.63333 5.95 9.63333C6.57591 9.63333 7.08332 10.1407 7.08332 10.7667C7.08332 11.3926 6.57591 11.9 5.95 11.9Z" fill="#3E3E3E"/>
<path d="M11.0496 9.06665C10.1107 9.06665 9.34961 9.82777 9.34961 10.7667C9.34961 11.7055 10.1107 12.4667 11.0496 12.4667C11.9885 12.4667 12.7496 11.7055 12.7496 10.7667C12.7487 9.82813 11.9881 9.06758 11.0496 9.06665ZM11.0496 11.9C10.4237 11.9 9.91629 11.3926 9.91629 10.7667C9.91629 10.1407 10.4237 9.63333 11.0496 9.63333C11.6755 9.63333 12.1829 10.1407 12.1829 10.7667C12.1829 11.3926 11.6755 11.9 11.0496 11.9Z" fill="#3E3E3E"/>
<path d="M8.4998 6.80002C9.43869 6.80002 10.1998 6.03891 10.1998 5.10002C10.1998 4.16114 9.43869 3.40002 8.4998 3.40002C7.56092 3.40002 6.7998 4.16114 6.7998 5.10002C6.80073 6.03851 7.56132 6.79909 8.4998 6.80002ZM8.4998 3.9667C9.12572 3.9667 9.63313 4.47411 9.63313 5.10002C9.63313 5.72594 9.12572 6.23335 8.4998 6.23335C7.87389 6.23335 7.36648 5.72594 7.36648 5.10002C7.36648 4.47411 7.87389 3.9667 8.4998 3.9667Z" fill="#3E3E3E"/>
<path d="M3.82805 6.19677L7.40854 8.21183C7.29608 8.63663 7.43975 9.08813 7.77706 9.36979C8.11437 9.65145 8.58426 9.71232 8.9822 9.52585C9.38014 9.33941 9.63411 8.93941 9.63355 8.49997C9.63355 8.48267 9.6293 8.46653 9.62843 8.44927L12.2668 7.63752C12.3636 7.60777 12.4371 7.52865 12.4598 7.42993C12.4824 7.33125 12.4506 7.22799 12.3765 7.15906C12.3023 7.09013 12.197 7.06599 12.1002 7.09578L9.46185 7.90753C9.27987 7.60793 8.96862 7.41031 8.62009 7.37296C8.27155 7.33564 7.92551 7.46287 7.68422 7.71711L4.10572 5.70317C4.01727 5.64918 3.90641 5.64779 3.81662 5.69955C3.72684 5.75132 3.67249 5.84794 3.67488 5.95153C3.67724 6.05516 3.73601 6.14919 3.82805 6.19677ZM8.50022 7.93329C8.8132 7.93329 9.0669 8.187 9.0669 8.49997C9.0669 8.81294 8.8132 9.06665 8.50022 9.06665C8.18725 9.06665 7.93355 8.81294 7.93355 8.49997C7.93355 8.187 8.18725 7.93329 8.50022 7.93329Z" fill="#3E3E3E"/>
</g>
<defs>
<clipPath id="clip0_285_6621">
<rect width="17" height="17" fill="white"/>
</clipPath>
</defs>
</svg>
