<svg width="9" height="20" viewBox="0 0 9 20" fill="none" xmlns="http://www.w3.org/2000/svg">
<path d="M7.12657 12.1047V9.6683H7.32053C7.5968 9.6683 7.8216 9.45217 7.8216 9.18651V8.03374C7.8216 7.76808 7.59684 7.55191 7.32053 7.55191H7.12657V3.4087C7.11329 3.03996 6.56055 3.04026 6.54739 3.4087V7.55191H1.87526V0.891234H6.54739V2.11651C6.56067 2.48524 7.11341 2.48495 7.12657 2.11651V0.612762C7.12657 0.458971 6.99695 0.33429 6.83698 0.33429H1.58567C1.4257 0.33429 1.29607 0.458971 1.29607 0.612762V7.55191H1.10212C0.825849 7.55191 0.601046 7.76805 0.601046 8.03374V9.18651C0.601046 9.45217 0.82581 9.6683 1.10212 9.6683H1.29607V12.1047C0.655954 12.1126 0.137695 12.6154 0.137695 13.2328V15.0967C0.150978 15.4655 0.703717 15.4652 0.716884 15.0967V13.2328C0.716884 12.9225 0.975318 12.6692 1.29607 12.6615V17.6522C1.29607 17.9712 1.56597 18.2308 1.89777 18.2308H6.52487C6.85667 18.2308 7.12657 17.9712 7.12657 17.6522V12.6615C7.44733 12.6692 7.70576 12.9225 7.70576 13.2328V17.8559C7.70576 18.3697 7.27106 18.7877 6.73674 18.7877H1.68591C1.15158 18.7877 0.716884 18.3697 0.716884 17.8559V16.3677C0.703601 15.999 0.150862 15.9993 0.137695 16.3677V17.8559C0.137695 18.6768 0.83222 19.3446 1.68591 19.3446H6.73678C7.59043 19.3446 8.28499 18.6768 8.28499 17.8559V13.2328C8.28495 12.6154 7.76669 12.1126 7.12657 12.1047ZM1.18024 8.10886H7.24241V9.11136H1.18024V8.10886ZM6.54739 9.6683V13.5153H5.08011V12.29C5.03628 11.183 3.38594 11.1838 3.34254 12.29V13.5153H1.87526V9.6683H6.54739ZM4.50092 12.29V16.2815C4.48729 16.6501 3.93524 16.6499 3.92173 16.2815V12.29C3.93536 11.9214 4.4874 11.9216 4.50092 12.29ZM6.52487 17.6738H1.89777C1.88538 17.6738 1.87526 17.6641 1.87526 17.6522V14.0722H3.34254V16.2815C3.38637 17.3885 5.03671 17.3877 5.08011 16.2815V14.0722H6.54739V17.6522C6.54739 17.6641 6.53727 17.6738 6.52487 17.6738Z" fill="#3E3E3E"/>
</svg>
