<svg width="101" height="102" viewBox="0 0 101 102" fill="none" xmlns="http://www.w3.org/2000/svg">
<g filter="url(#filter0_d_716_40)">
<ellipse cx="50.375" cy="40" rx="24.375" ry="25" fill="#413B3B" fill-opacity="0.2" shape-rendering="crispEdges"/>
</g>
<path fill-rule="evenodd" clip-rule="evenodd" d="M52.308 30C54.754 30 56.744 31.99 56.744 34.436V35.368C56.744 35.782 56.408 36.118 55.994 36.118C55.58 36.118 55.244 35.782 55.244 35.368V34.436C55.244 32.816 53.927 31.5 52.308 31.5H47.433C45.816 31.5 44.5 32.816 44.5 34.436V45.565C44.5 47.184 45.816 48.5 47.433 48.5H52.319C53.931 48.5 55.244 47.188 55.244 45.576V44.633C55.244 44.219 55.58 43.883 55.994 43.883C56.408 43.883 56.744 44.219 56.744 44.633V45.576C56.744 48.016 54.758 50 52.319 50H47.433C44.989 50 43 48.011 43 45.565V34.436C43 31.99 44.989 30 47.433 30H52.308ZM60.3881 36.554L63.3161 39.469C63.3422 39.4949 63.3656 39.5219 63.387 39.5504L63.3161 39.469C63.3515 39.5039 63.383 39.5421 63.4104 39.5828C63.4224 39.6012 63.434 39.6203 63.4448 39.6399C63.4535 39.6552 63.4615 39.6712 63.469 39.6875C63.4753 39.7018 63.4814 39.7162 63.487 39.7308C63.4945 39.7498 63.5011 39.7693 63.5069 39.7891C63.5113 39.8047 63.5153 39.8203 63.5188 39.836C63.5233 39.8551 63.5268 39.8743 63.5295 39.8937C63.5311 39.9063 63.5326 39.9195 63.5338 39.9328C63.5361 39.9556 63.5371 39.9777 63.5371 40L63.532 40.062L63.5299 40.1017C63.5297 40.1034 63.5295 40.1051 63.5292 40.1068L63.5371 40C63.5371 40.0555 63.531 40.1105 63.519 40.1639C63.5153 40.1797 63.5113 40.1953 63.5068 40.2107C63.5011 40.2307 63.4945 40.2502 63.4871 40.2695C63.4814 40.2838 63.4753 40.2982 63.4688 40.3123C63.4615 40.3288 63.4535 40.3448 63.4449 40.3605C63.434 40.3797 63.4224 40.3988 63.41 40.4172C63.403 40.4282 63.3953 40.439 63.3873 40.4497C63.3635 40.481 63.3375 40.5104 63.3095 40.5377L60.3881 43.447C60.2421 43.593 60.0501 43.666 59.8591 43.666C59.6671 43.666 59.4741 43.593 59.3281 43.445C59.0361 43.151 59.0371 42.677 59.3301 42.385L60.97 40.75H50.7458C50.3318 40.75 49.9958 40.414 49.9958 40C49.9958 39.586 50.3318 39.25 50.7458 39.25H60.972L59.3301 37.616C59.0371 37.324 59.0351 36.85 59.3281 36.556C59.6201 36.262 60.0941 36.262 60.3881 36.554Z" fill="white"/>
<defs>
<filter id="filter0_d_716_40" x="0" y="0" width="100.75" height="102" filterUnits="userSpaceOnUse" color-interpolation-filters="sRGB">
<feFlood flood-opacity="0" result="BackgroundImageFix"/>
<feColorMatrix in="SourceAlpha" type="matrix" values="0 0 0 0 0 0 0 0 0 0 0 0 0 0 0 0 0 0 127 0" result="hardAlpha"/>
<feOffset dy="11"/>
<feGaussianBlur stdDeviation="13"/>
<feComposite in2="hardAlpha" operator="out"/>
<feColorMatrix type="matrix" values="0 0 0 0 0 0 0 0 0 0 0 0 0 0 0 0 0 0 0.1 0"/>
<feBlend mode="normal" in2="BackgroundImageFix" result="effect1_dropShadow_716_40"/>
<feBlend mode="normal" in="SourceGraphic" in2="effect1_dropShadow_716_40" result="shape"/>
</filter>
</defs>
</svg>
