<svg width="165" height="194" viewBox="0 0 165 194" fill="none" xmlns="http://www.w3.org/2000/svg">
<path d="M70.44 157.78V182H67.255V163.94L59.205 182H56.965L48.88 163.905V182H45.695V157.78H49.125L58.085 177.8L67.045 157.78H70.44ZM117.036 157.78V182H113.851V163.94L105.801 182H103.561L95.4765 163.905V182H92.2915V157.78H95.7215L104.681 177.8L113.641 157.78H117.036Z" fill="#4D4D4D"/>
<path d="M30.12 133.68C21.8 133.68 12.96 132.2 3.6 129.24L8.16 110.04C12.72 116.76 17.52 121.76 22.56 125.04C27.6 128.24 32.36 129.84 36.84 129.84C42.36 129.84 46.8 128.4 50.16 125.52C53.6 122.56 55.32 118.92 55.32 114.6C55.32 110.12 53.52 105.56 49.92 100.92C46.32 96.2 40.8 91.88 33.36 87.96L51.48 63.84H7.56V47.76H64.8V49.8L44.52 76.08C53.08 78.56 59.48 82.24 63.72 87.12C67.96 91.92 70.08 97.16 70.08 102.84C70.08 109.16 68.36 114.68 64.92 119.4C61.56 124.04 56.84 127.6 50.76 130.08C44.76 132.48 37.88 133.68 30.12 133.68ZM121.591 134.52C112.551 134.52 104.711 132.76 98.0709 129.24C91.4309 125.64 86.3109 120.52 82.7109 113.88C79.1109 107.16 77.3109 99.24 77.3109 90.12C77.3109 80.36 79.4309 72.16 83.6709 65.52C87.9109 58.8 93.6309 53.8 100.831 50.52C108.031 47.24 116.111 45.6 125.071 45.6C135.151 45.6 145.231 47.6 155.311 51.6L152.071 66.84C146.391 60.76 140.791 56.12 135.271 52.92C129.831 49.64 124.831 48 120.271 48C113.311 48 107.791 51.12 103.711 57.36C99.6309 63.6 97.4309 72.12 97.1109 82.92C99.7509 77.32 103.711 73 108.991 69.96C114.351 66.92 120.031 65.4 126.031 65.4C131.951 65.4 137.551 66.72 142.831 69.36C148.191 71.92 152.511 75.68 155.791 80.64C159.151 85.6 160.831 91.44 160.831 98.16C160.831 106.08 158.911 112.8 155.071 118.32C151.231 123.76 146.311 127.84 140.311 130.56C134.311 133.2 128.071 134.52 121.591 134.52ZM119.791 132.36C123.551 132.36 127.071 131.16 130.351 128.76C133.711 126.28 136.431 122.72 138.511 118.08C140.591 113.36 141.631 107.84 141.631 101.52C141.631 94.4 140.631 88.36 138.631 83.4C136.711 78.36 134.151 74.6 130.951 72.12C127.751 69.56 124.311 68.28 120.631 68.28C116.871 68.28 113.231 69.6 109.711 72.24C106.271 74.8 103.431 78.64 101.191 83.76C99.0309 88.8 97.9509 94.88 97.9509 102C98.3509 108.56 99.5909 114.12 101.671 118.68C103.831 123.24 106.471 126.68 109.591 129C112.791 131.24 116.191 132.36 119.791 132.36Z" fill="white"/>
</svg>
