<svg width="143" height="194" viewBox="0 0 143 194" fill="none" xmlns="http://www.w3.org/2000/svg">
<path d="M68.04 132H48.84V103.8H3.6V101.76L58.68 47.76H68.04V101.16H78V103.8H68.04V132ZM48.84 60.48L7.32 101.16H48.84V60.48ZM115.043 132H95.8425V53.64L85.1625 56.88V54.84L112.283 47.76H115.043V132Z" fill="#404040"/>
<path d="M67.44 157.78V182H64.255V163.94L56.205 182H53.965L45.88 163.905V182H42.695V157.78H46.125L55.085 177.8L64.045 157.78H67.44ZM114.036 157.78V182H110.851V163.94L102.801 182H100.561L92.4765 163.905V182H89.2915V157.78H92.7215L101.681 177.8L110.641 157.78H114.036Z" fill="#4D4D4D"/>
</svg>
