<svg width="16" height="15" viewBox="0 0 16 15" fill="none" xmlns="http://www.w3.org/2000/svg">
<path d="M13.8554 2.14249C13.5171 1.78029 13.1154 1.49296 12.6732 1.29693C12.2311 1.1009 11.7572 1 11.2787 1C10.8001 1 10.3262 1.1009 9.88409 1.29693C9.44196 1.49296 9.04027 1.78029 8.70195 2.14249L7.9998 2.89384L7.29766 2.14249C6.61427 1.41121 5.6874 1.00038 4.72094 1.00038C3.75448 1.00038 2.82761 1.41121 2.14422 2.14249C1.46083 2.87378 1.0769 3.86561 1.0769 4.8998C1.0769 5.93399 1.46083 6.92583 2.14422 7.65711L2.84636 8.40846L7.9998 13.9231L13.1532 8.40846L13.8554 7.65711C14.1939 7.29508 14.4624 6.86523 14.6456 6.39212C14.8288 5.91901 14.9231 5.41192 14.9231 4.8998C14.9231 4.38769 14.8288 3.88059 14.6456 3.40749C14.4624 2.93438 14.1939 2.50453 13.8554 2.14249Z" stroke="#3F3F3F" stroke-linecap="round" stroke-linejoin="round"/>
</svg>
