<svg width="97" height="89" viewBox="0 0 97 89" fill="none" xmlns="http://www.w3.org/2000/svg">
<path d="M8 75.9803H18.873V77.984H18.787C18.6699 77.4184 18.3085 76.977 17.6993 76.6666C17.0901 76.3528 16.3294 76.1976 15.4173 76.1976H14.1335V86.1779C14.1335 86.3814 14.1438 86.5987 14.1645 86.8332C14.1851 87.0642 14.2299 87.2815 14.2953 87.4746C14.3607 87.6712 14.4501 87.8436 14.5672 87.9988C14.6842 88.1505 14.8356 88.2506 15.0249 88.2919V88.3575H11.8274V88.2919C12.0305 88.2471 12.1888 88.1505 12.3058 87.9988C12.4229 87.8471 12.5123 87.6712 12.5777 87.4746C12.6431 87.278 12.6879 87.0642 12.7085 86.8332C12.7292 86.6021 12.7395 86.3848 12.7395 86.1779V76.1976H11.4557C10.5436 76.1976 9.78291 76.3528 9.17369 76.6666C8.56447 76.9804 8.19619 77.4184 8.0654 77.984H8V75.9803Z" fill="white"/>
<path d="M26.287 86.1745C26.287 86.3779 26.2973 86.5952 26.3214 86.8297C26.3421 87.0608 26.3834 87.278 26.4419 87.4712C26.5004 87.6677 26.5899 87.8402 26.7138 87.9954C26.8377 88.1471 26.9926 88.2471 27.1819 88.2885V88.354H23.9844V88.2885C24.1874 88.2437 24.3458 88.1471 24.4628 87.9954C24.5798 87.8436 24.6659 87.6677 24.7244 87.4712C24.7829 87.2746 24.8208 87.0608 24.8449 86.8297C24.8655 86.5987 24.8758 86.3814 24.8758 86.1745V78.1564C24.8758 77.9529 24.8655 77.7357 24.8449 77.5012C24.8242 77.2701 24.7829 77.0528 24.7244 76.8597C24.6659 76.6631 24.5798 76.4907 24.4628 76.3355C24.3458 76.1838 24.1874 76.0838 23.9844 76.0424V75.9769H27.1819V76.0424C26.9926 76.0872 26.8377 76.1838 26.7138 76.3355C26.5899 76.4873 26.5004 76.6631 26.4419 76.8597C26.3834 77.0563 26.3455 77.2701 26.3214 77.5012C26.3008 77.7322 26.287 77.9529 26.287 78.1564V86.1745Z" fill="white"/>
<path d="M40.9219 86.3504V88.354H32.4204V88.2885C32.6235 88.2437 32.7818 88.1471 32.8988 87.9954C33.0159 87.8436 33.1019 87.6677 33.1604 87.4712C33.2189 87.2746 33.2568 87.0608 33.2809 86.8297C33.3015 86.5987 33.3119 86.3814 33.3119 86.1745V78.1564C33.3119 77.9529 33.3015 77.7357 33.2809 77.5012C33.2602 77.2701 33.2189 77.0528 33.1604 76.8597C33.1019 76.6631 33.0159 76.4907 32.8988 76.3355C32.7818 76.1838 32.6235 76.0838 32.4204 76.0424V75.9769H40.3368V77.0873H40.2508C40.206 76.8976 40.1131 76.7459 39.9685 76.6287C39.824 76.5114 39.6484 76.4217 39.4454 76.3562C39.2423 76.2907 39.0254 76.2459 38.7914 76.2252C38.5608 76.2045 38.3405 76.1941 38.1374 76.1941H34.7231V81.8809H36.2685C36.4715 81.8809 36.6884 81.8706 36.9224 81.8499C37.153 81.8292 37.3699 81.7878 37.5626 81.7292C37.7588 81.6706 37.9309 81.5809 38.0858 81.4567C38.2372 81.3326 38.3371 81.1774 38.3784 80.9877H38.4438V83.0155H38.3784C38.3336 82.8121 38.2372 82.6534 38.0858 82.5362C37.9344 82.4189 37.7588 82.3327 37.5626 82.2741C37.3664 82.2154 37.153 82.1775 36.9224 82.1534C36.6918 82.1327 36.4715 82.1223 36.2685 82.1223H34.7231V88.1368H37.4835C38.3956 88.1368 39.1528 87.9816 39.7551 87.6677C40.3575 87.3574 40.7223 86.9159 40.8531 86.3504H40.9185H40.9219Z" fill="white"/>
<path d="M58.6652 76.0458C58.4759 76.0907 58.321 76.1872 58.1971 76.339C58.0731 76.4907 57.9837 76.6666 57.9251 76.8632C57.8666 77.0597 57.8288 77.2736 57.8047 77.5046C57.784 77.7357 57.7737 77.9564 57.7737 78.1599V86.1779C57.7737 86.3814 57.784 86.5987 57.8047 86.8332C57.8253 87.0642 57.8666 87.2815 57.9251 87.4746C57.9837 87.6712 58.0731 87.8436 58.1971 87.9988C58.321 88.1505 58.4759 88.2506 58.6652 88.2919V88.3575H55.4676V88.2919C55.6707 88.2471 55.829 88.1505 55.946 87.9988C56.0631 87.8471 56.1491 87.6712 56.2076 87.4746C56.2661 87.278 56.304 87.0642 56.3281 86.8332C56.3488 86.6021 56.3625 86.3848 56.3625 86.1779V76.3286L51.4475 85.7641L47.0762 77.3977V86.1779C47.0762 86.3814 47.0866 86.5987 47.1072 86.8332C47.1279 87.0642 47.1692 87.2815 47.2277 87.4746C47.2862 87.6712 47.3757 87.8436 47.4996 87.9988C47.6235 88.1505 47.7784 88.2506 47.9677 88.2919V88.3575H45.9438V88.2919C46.1469 88.2471 46.3052 88.1505 46.4223 87.9988C46.5393 87.8471 46.6253 87.6712 46.6839 87.4746C46.7424 87.278 46.7802 87.0642 46.8043 86.8332C46.825 86.6021 46.8353 86.3848 46.8353 86.1779V78.1599C46.8353 77.9564 46.825 77.7391 46.8043 77.5046C46.7837 77.2736 46.7424 77.0563 46.6839 76.8632C46.6253 76.6666 46.5393 76.4942 46.4223 76.339C46.3052 76.1872 46.1469 76.0872 45.9438 76.0458V75.9803H47.9023L52.098 83.9984L56.2937 75.9803H58.6652V76.0458Z" fill="white"/>
<path d="M68.6915 75.9803C69.1974 75.9803 69.6793 76.07 70.1371 76.2528C70.5948 76.4355 70.9872 76.6804 71.3211 76.9942C71.6549 77.308 71.92 77.677 72.1162 78.1047C72.3124 78.5323 72.4087 78.9875 72.4087 79.4669C72.4087 79.9462 72.3089 80.4015 72.1058 80.8291C71.9028 81.2567 71.6377 81.6292 71.3108 81.9396C70.9838 82.2534 70.612 82.4982 70.1921 82.681C69.7722 82.8638 69.3351 82.9535 68.8876 82.9535H66.2133V86.1779C66.2133 86.3814 66.2236 86.5987 66.2477 86.8332C66.2684 87.0642 66.3097 87.2815 66.3682 87.4746C66.4267 87.6712 66.5162 87.8436 66.6401 87.9988C66.764 88.1505 66.9189 88.2506 67.1082 88.2919V88.3575H63.9106V88.2919C64.1137 88.2471 64.272 88.1505 64.3891 87.9988C64.5061 87.8471 64.5921 87.6712 64.6507 87.4746C64.7092 87.278 64.747 87.0642 64.7711 86.8332C64.7918 86.6021 64.8021 86.3848 64.8021 86.1779V78.1599C64.8021 77.9564 64.7918 77.7391 64.7711 77.5046C64.7505 77.2736 64.7092 77.0563 64.6507 76.8632C64.5921 76.6666 64.5061 76.4942 64.3891 76.339C64.272 76.1872 64.1137 76.0872 63.9106 76.0458V75.9803H68.6949H68.6915ZM67.9101 82.7362C68.3438 82.7362 68.7362 82.6362 69.0838 82.4327C69.4315 82.2292 69.7275 81.9671 69.9753 81.6499C70.2231 81.3292 70.409 80.9774 70.5398 80.5946C70.6706 80.2083 70.736 79.8359 70.736 79.4738C70.736 79.1117 70.6706 78.7358 70.5398 78.353C70.409 77.9667 70.2197 77.615 69.9753 77.2977C69.7275 76.977 69.4315 76.7183 69.0838 76.5149C68.7362 76.3114 68.3438 76.2114 67.9101 76.2114H66.2133V82.7465H67.9101V82.7362Z" fill="white"/>
<path d="M82.7584 75.7182C83.526 75.7182 84.2488 75.8907 84.9234 76.2286C85.598 76.57 86.1866 77.0322 86.696 77.6115C87.202 78.1909 87.6012 78.8737 87.8903 79.66C88.1795 80.4429 88.324 81.2809 88.324 82.1672C88.324 83.0535 88.1795 83.888 87.8903 84.6743C87.6012 85.4606 87.202 86.14 86.696 86.7228C86.1866 87.3056 85.598 87.7643 84.9234 88.1057C84.2488 88.4471 83.5294 88.6196 82.7584 88.6196C81.9875 88.6196 81.2681 88.4471 80.5935 88.1057C79.9189 87.7643 79.3269 87.3022 78.8209 86.7228C78.3149 86.1435 77.9157 85.4606 77.6266 84.6743C77.3374 83.8915 77.1929 83.0535 77.1929 82.1672C77.1929 81.2809 77.3374 80.4463 77.6266 79.66C77.9157 78.8772 78.3149 78.1943 78.8209 77.6115C79.3269 77.0322 79.9189 76.57 80.5935 76.2286C81.2681 75.8872 81.9875 75.7182 82.7584 75.7182ZM82.7584 88.3782C83.2954 88.3782 83.7979 88.2161 84.2694 87.8885C84.741 87.5608 85.154 87.1194 85.5085 86.5607C85.8631 86.0021 86.1418 85.3434 86.3449 84.5881C86.548 83.8329 86.6478 83.0259 86.6478 82.1706C86.6478 81.3154 86.548 80.5084 86.3449 79.7531C86.1418 78.9979 85.8631 78.3392 85.5085 77.7805C85.154 77.2218 84.741 76.777 84.2694 76.4528C83.7979 76.1252 83.2954 75.9631 82.7584 75.9631C82.2215 75.9631 81.719 76.1252 81.2474 76.4528C80.7759 76.7804 80.3629 77.2218 80.0084 77.7805C79.6538 78.3392 79.375 78.9979 79.172 79.7531C78.9689 80.5084 78.8691 81.3154 78.8691 82.1706C78.8691 83.0259 78.9689 83.8329 79.172 84.5881C79.375 85.3434 79.6538 86.0021 80.0084 86.5607C80.3629 87.1194 80.7759 87.5643 81.2474 87.8885C81.719 88.2161 82.2215 88.3782 82.7584 88.3782Z" fill="white"/>
<path d="M92.3293 20.9436C90.9939 21.9816 89.5173 23.1265 87.9787 24.3232C83.9242 27.4684 79.3258 31.0343 75.8219 33.8346C70.0533 38.3902 63.7993 43.5149 58.2888 48.0636C55.4768 32.6965 52.2345 17.388 49.3983 4.17975L48.5 0L47.6017 4.17975C44.7655 17.388 41.5198 32.6965 38.7112 48.0636C33.2007 43.5149 26.9433 38.3902 21.1781 33.8346C17.6742 31.0377 13.0758 27.4718 9.02125 24.3232C7.48272 23.13 6.00614 21.9851 4.67068 20.9436L0 17.3087L8.17454 29.2996C17.7052 43.3114 26.5372 55.8024 35.1729 67.4829L35.2521 67.5898L35.228 67.6829L35.2899 67.6381L36.2055 68.883L37.5306 67.814C39.7334 66.0138 42.0395 64.055 44.2699 62.1582C45.6707 60.965 47.1163 59.7373 48.5 58.5785C49.8871 59.7373 51.3293 60.965 52.7301 62.1582C54.9605 64.055 57.2666 66.0138 59.4694 67.814L60.7945 68.883L61.7101 67.6381L61.772 67.6829L61.7479 67.5898L61.8271 67.4829C70.4628 55.8024 79.2948 43.3114 88.8255 29.2996L97 17.3087L92.3328 20.9436H92.3293ZM36.147 62.9135C30.991 54.8781 25.5562 46.66 19.6396 37.9557C25.5218 42.2527 31.9754 46.8221 38.1433 51.1812C37.4308 55.1609 36.7631 59.0958 36.1435 62.9135H36.147ZM42.2598 60.5615C41.0345 61.3961 39.7644 62.2617 38.5494 63.1066L38.3704 63.2307C39.2516 59.9752 40.1362 56.6162 41.007 53.2021C43.0067 54.616 44.9824 56.0093 46.9064 57.368C45.3644 58.4475 43.7915 59.52 42.2633 60.5615H42.2598ZM44.6829 52.9986C43.6916 52.1779 42.69 51.3502 41.685 50.5191C43.8775 41.8113 46.0666 32.5275 48.5034 21.6229C50.9403 32.5275 53.1294 41.8147 55.3219 50.5191C54.3168 51.3502 53.3152 52.1779 52.324 52.9986C51.0332 54.0643 49.7597 55.1195 48.5069 56.1576C47.254 55.1195 45.9771 54.0677 44.6898 52.9986H44.6829ZM58.454 63.1066C57.2356 62.2617 55.969 61.3995 54.7436 60.5615C53.212 59.5165 51.639 58.4475 50.1005 57.368C52.0245 56.0058 53.9967 54.6126 55.9999 53.2021C56.8707 56.6197 57.7553 59.9787 58.6364 63.2307L58.4575 63.1066H58.454ZM60.853 62.9169C60.2369 59.0993 59.5658 55.1644 58.8533 51.1846C65.0212 46.829 71.4748 42.2561 77.357 37.9591C71.4403 46.6635 66.0056 54.8816 60.8496 62.9169H60.853Z" fill="white"/>
</svg>
